<svg xmlns="http://www.w3.org/2000/svg" viewBox="0 0 500 500"><g id="freepik--Notebook--inject-22"><rect x="205.78" y="71.23" width="248.47" height="385.7" transform="translate(660.02 528.17) rotate(180)" style="fill:#FCB310"></rect><polygon points="424 456.94 441.97 456.94 454.25 71.23 436.28 71.23 424 456.94" style="fill:#dbdbdb"></polygon><polygon points="175.54 456.94 424 456.94 436.28 71.23 187.81 71.23 175.54 456.94" style="fill:#fff"></polygon><path d="M175.54,456.94c-.15.06,249.75-.68,248.17,0L435.78,71.22l.5.51c.17,0-250.07.33-248.1-.48L175.54,456.94Zm0,0c-.1-.21,12-385.84,11.91-386.07.15-.24,248.6,0,248.83-.14h.51v.51c.11.09-12.57,385.88-12.49,386-.22.19-248.5-.43-248.75-.29Z" style="fill:#263238"></path><path d="M419.77,84.39a2.92,2.92,0,0,0,2.93,3,3.17,3.17,0,0,0,3.15-3,2.92,2.92,0,0,0-2.93-3A3.17,3.17,0,0,0,419.77,84.39Z" style="fill:#263238"></path><path d="M415.75,71.24c-.62,5.16,1.1,10.47,5.51,13.38,1.91,1.31,3.91-1.89,2-3.13a9.93,9.93,0,0,1-4-8.44,13.85,13.85,0,0,1,.17-1.81A14.05,14.05,0,0,1,421.65,65a5.25,5.25,0,0,1,4.23-2.61,4.12,4.12,0,0,1,3.43,2.5,15.45,15.45,0,0,1,1.28,6.36h3.68a18.7,18.7,0,0,0-.86-6.33c-1.16-3.34-3.52-6.11-7.33-6.25-3.45-.07-6.29,2.4-8,5.24A16.82,16.82,0,0,0,415.75,71.24Z" style="fill:#455a64"></path><path d="M399.47,84.39a2.91,2.91,0,0,0,2.93,3,3.17,3.17,0,0,0,3.14-3,2.91,2.91,0,0,0-2.93-3A3.16,3.16,0,0,0,399.47,84.39Z" style="fill:#263238"></path><path d="M395.45,71.24c-.63,5.16,1.09,10.47,5.5,13.38,1.92,1.31,3.92-1.89,2-3.13a9.9,9.9,0,0,1-4-8.44,15.8,15.8,0,0,1,.16-1.81A14.19,14.19,0,0,1,401.35,65a5.22,5.22,0,0,1,4.23-2.61,4.13,4.13,0,0,1,3.43,2.5,15.63,15.63,0,0,1,1.28,6.36H414a18.22,18.22,0,0,0-.86-6.33c-1.15-3.34-3.51-6.11-7.33-6.25-3.44-.07-6.29,2.4-8,5.24A16.82,16.82,0,0,0,395.45,71.24Z" style="fill:#455a64"></path><path d="M379.16,84.39a2.92,2.92,0,0,0,2.93,3,3.17,3.17,0,0,0,3.15-3,2.92,2.92,0,0,0-2.93-3A3.17,3.17,0,0,0,379.16,84.39Z" style="fill:#263238"></path><path d="M375.14,71.24c-.62,5.16,1.1,10.47,5.51,13.38,1.91,1.31,3.91-1.89,2-3.13a9.93,9.93,0,0,1-4-8.44,13.85,13.85,0,0,1,.17-1.81A14.05,14.05,0,0,1,381,65a5.25,5.25,0,0,1,4.23-2.61,4.12,4.12,0,0,1,3.43,2.5A15.28,15.28,0,0,1,390,71.23h3.68a18.7,18.7,0,0,0-.86-6.33c-1.16-3.34-3.52-6.11-7.33-6.25-3.45-.07-6.29,2.4-8,5.24A16.82,16.82,0,0,0,375.14,71.24Z" style="fill:#455a64"></path><path d="M358.86,84.39a2.91,2.91,0,0,0,2.93,3,3.17,3.17,0,0,0,3.14-3,2.91,2.91,0,0,0-2.93-3A3.16,3.16,0,0,0,358.86,84.39Z" style="fill:#263238"></path><path d="M354.84,71.24c-.63,5.16,1.09,10.47,5.5,13.38,1.92,1.31,3.92-1.89,2-3.13a9.9,9.9,0,0,1-4-8.44,15.8,15.8,0,0,1,.16-1.81A14.19,14.19,0,0,1,360.74,65,5.22,5.22,0,0,1,365,62.37a4.13,4.13,0,0,1,3.43,2.5,15.63,15.63,0,0,1,1.28,6.36h3.67a18.22,18.22,0,0,0-.86-6.33c-1.15-3.34-3.51-6.11-7.32-6.25-3.45-.07-6.3,2.4-8,5.24A16.82,16.82,0,0,0,354.84,71.24Z" style="fill:#455a64"></path><path d="M338.55,84.39a2.92,2.92,0,0,0,2.93,3,3.17,3.17,0,0,0,3.15-3,2.92,2.92,0,0,0-2.93-3A3.17,3.17,0,0,0,338.55,84.39Z" style="fill:#263238"></path><path d="M334.53,71.24c-.62,5.16,1.1,10.47,5.51,13.38,1.91,1.31,3.91-1.89,2-3.13a9.93,9.93,0,0,1-4-8.44,13.85,13.85,0,0,1,.17-1.81A14.05,14.05,0,0,1,340.43,65a5.25,5.25,0,0,1,4.23-2.61,4.12,4.12,0,0,1,3.43,2.5,15.28,15.28,0,0,1,1.28,6.36h3.68a18.7,18.7,0,0,0-.86-6.33c-1.16-3.34-3.52-6.11-7.33-6.25-3.45-.07-6.29,2.4-8,5.24A16.82,16.82,0,0,0,334.53,71.24Z" style="fill:#455a64"></path><path d="M318.25,84.39a2.91,2.91,0,0,0,2.93,3,3.17,3.17,0,0,0,3.14-3,2.91,2.91,0,0,0-2.93-3A3.16,3.16,0,0,0,318.25,84.39Z" style="fill:#263238"></path><path d="M314.23,71.24c-.63,5.16,1.09,10.47,5.5,13.38,1.92,1.31,3.92-1.89,2-3.13a9.9,9.9,0,0,1-4-8.44,15.8,15.8,0,0,1,.16-1.81A14.19,14.19,0,0,1,320.13,65a5.22,5.22,0,0,1,4.23-2.61,4.13,4.13,0,0,1,3.43,2.5,15.63,15.63,0,0,1,1.28,6.36h3.67a18.22,18.22,0,0,0-.86-6.33c-1.15-3.34-3.51-6.11-7.32-6.25-3.45-.07-6.3,2.4-8,5.24A16.82,16.82,0,0,0,314.23,71.24Z" style="fill:#455a64"></path><path d="M297.94,84.39a2.92,2.92,0,0,0,2.93,3,3.17,3.17,0,0,0,3.15-3,2.92,2.92,0,0,0-2.93-3A3.17,3.17,0,0,0,297.94,84.39Z" style="fill:#263238"></path><path d="M293.92,71.24c-.62,5.16,1.1,10.47,5.51,13.38,1.91,1.31,3.91-1.89,2-3.13a9.93,9.93,0,0,1-4-8.44,13.85,13.85,0,0,1,.17-1.81A14.05,14.05,0,0,1,299.82,65a5.25,5.25,0,0,1,4.23-2.61,4.12,4.12,0,0,1,3.43,2.5,15.28,15.28,0,0,1,1.28,6.36h3.68a18.7,18.7,0,0,0-.86-6.33c-1.16-3.34-3.52-6.11-7.33-6.25-3.45-.07-6.29,2.4-8,5.24A17,17,0,0,0,293.92,71.24Z" style="fill:#455a64"></path><path d="M277.64,84.39a2.91,2.91,0,0,0,2.93,3,3.17,3.17,0,0,0,3.14-3,2.91,2.91,0,0,0-2.93-3A3.16,3.16,0,0,0,277.64,84.39Z" style="fill:#263238"></path><path d="M273.62,71.24c-.63,5.16,1.09,10.47,5.5,13.38,1.92,1.31,3.92-1.89,2-3.13a9.9,9.9,0,0,1-4-8.44,15.8,15.8,0,0,1,.16-1.81A14.19,14.19,0,0,1,279.52,65a5.22,5.22,0,0,1,4.23-2.61,4.13,4.13,0,0,1,3.43,2.5,15.63,15.63,0,0,1,1.28,6.36h3.67a18.22,18.22,0,0,0-.86-6.33c-1.15-3.34-3.51-6.11-7.32-6.25-3.45-.07-6.3,2.4-8,5.24A16.82,16.82,0,0,0,273.62,71.24Z" style="fill:#455a64"></path><ellipse cx="260.37" cy="84.39" rx="3.09" ry="2.98" transform="translate(15.5 206.69) rotate(-44.5)" style="fill:#263238"></ellipse><path d="M253.31,71.24c-.62,5.16,1.1,10.47,5.51,13.38,1.92,1.31,3.91-1.89,2-3.13a9.93,9.93,0,0,1-4-8.44,15.82,15.82,0,0,1,.17-1.81A14.05,14.05,0,0,1,259.21,65a5.25,5.25,0,0,1,4.24-2.61,4.12,4.12,0,0,1,3.42,2.5,15.28,15.28,0,0,1,1.28,6.36h3.68A18.7,18.7,0,0,0,271,64.9c-1.16-3.34-3.52-6.11-7.33-6.25-3.45-.07-6.29,2.4-8,5.24A16.83,16.83,0,0,0,253.31,71.24Z" style="fill:#455a64"></path><path d="M237,84.39a2.91,2.91,0,0,0,2.93,3,3.17,3.17,0,0,0,3.14-3,2.91,2.91,0,0,0-2.93-3A3.16,3.16,0,0,0,237,84.39Z" style="fill:#263238"></path><path d="M233,71.24c-.63,5.16,1.09,10.47,5.5,13.38,1.92,1.31,3.92-1.89,2-3.13a9.9,9.9,0,0,1-4-8.44,15.8,15.8,0,0,1,.16-1.81A14.19,14.19,0,0,1,238.91,65a5.22,5.22,0,0,1,4.23-2.61,4.13,4.13,0,0,1,3.43,2.5,15.63,15.63,0,0,1,1.28,6.36h3.67a18.22,18.22,0,0,0-.86-6.33c-1.15-3.34-3.51-6.11-7.32-6.25-3.45-.07-6.3,2.4-8,5.24A16.82,16.82,0,0,0,233,71.24Z" style="fill:#455a64"></path><path d="M216.72,84.39a2.92,2.92,0,0,0,2.93,3,3.17,3.17,0,0,0,3.15-3,2.92,2.92,0,0,0-2.93-3A3.17,3.17,0,0,0,216.72,84.39Z" style="fill:#263238"></path><path d="M212.7,71.24c-.62,5.16,1.1,10.47,5.51,13.38,1.92,1.31,3.91-1.89,2-3.13a9.93,9.93,0,0,1-4-8.44,15.82,15.82,0,0,1,.17-1.81A14.05,14.05,0,0,1,218.6,65a5.25,5.25,0,0,1,4.24-2.61,4.12,4.12,0,0,1,3.42,2.5,15.53,15.53,0,0,1,1.29,6.36h3.67a18.7,18.7,0,0,0-.86-6.33c-1.16-3.34-3.52-6.11-7.33-6.25-3.45-.07-6.29,2.4-8,5.24A16.83,16.83,0,0,0,212.7,71.24Z" style="fill:#455a64"></path><ellipse cx="199.46" cy="84.39" rx="3.09" ry="2.98" transform="translate(-1.96 164) rotate(-44.5)" style="fill:#263238"></ellipse><path d="M192.4,71.24c-.63,5.16,1.09,10.47,5.5,13.38,1.92,1.31,3.92-1.89,2-3.13a9.9,9.9,0,0,1-4-8.44,15.8,15.8,0,0,1,.16-1.81A14.19,14.19,0,0,1,198.3,65a5.22,5.22,0,0,1,4.23-2.61,4.13,4.13,0,0,1,3.43,2.5,15.63,15.63,0,0,1,1.28,6.36h3.67a18.22,18.22,0,0,0-.86-6.33c-1.15-3.34-3.51-6.11-7.32-6.25-3.45-.07-6.29,2.4-8,5.24A16.82,16.82,0,0,0,192.4,71.24Z" style="fill:#455a64"></path><path d="M267.87,131.35a10.38,10.38,0,0,1,10.45-10,10.11,10.11,0,0,1,6.29,2.17,1.58,1.58,0,0,1,.25,2.25,1.63,1.63,0,0,1-2.25.25,7.19,7.19,0,0,0-9.39.52,6.79,6.79,0,0,0-2.18,4.83,6.44,6.44,0,0,0,2,4.78,6.72,6.72,0,0,0,5,2,7.8,7.8,0,0,0,3.83-1.06l.08-3.8h-4a1.56,1.56,0,0,1-1.55-1.58,1.6,1.6,0,0,1,1.61-1.56h5.53a1.53,1.53,0,0,1,1.57,1.56l-.13,6.13a2.06,2.06,0,0,1-.09.47c0,.06,0,.09-.06.14v0a1.4,1.4,0,0,1-.54.67,10.45,10.45,0,0,1-6.35,2.16A9.84,9.84,0,0,1,267.87,131.35Z" style="fill:#263238"></path><path d="M306.8,124.3a10,10,0,0,1,2.65,7,10.3,10.3,0,0,1-2.95,7,9.26,9.26,0,0,1-6.69,3,9.13,9.13,0,0,1-6.74-3,9.88,9.88,0,0,1-2.6-7,10.34,10.34,0,0,1,2.9-7,9.46,9.46,0,0,1,6.86-3A8.8,8.8,0,0,1,306.8,124.3Zm-.51,7a7,7,0,0,0-1.79-4.86,5.83,5.83,0,0,0-4.34-2,6.17,6.17,0,0,0-4.54,2,7.22,7.22,0,0,0-2,4.86,6.83,6.83,0,0,0,1.79,4.83,5.94,5.94,0,0,0,4.45,2,6.14,6.14,0,0,0,4.43-2A7.26,7.26,0,0,0,306.29,131.33Z" style="fill:#263238"></path><path d="M323.61,136.74h-6.74l-1.44,3.61a1.59,1.59,0,0,1-1.46,1,1.78,1.78,0,0,1-.53-.08,1.54,1.54,0,0,1-.87-2l6.48-16.35a1.61,1.61,0,0,1,1.49-1,1.51,1.51,0,0,1,1.45,1l5.79,16.35a1.61,1.61,0,0,1-1,2,1.64,1.64,0,0,1-.53.08,1.45,1.45,0,0,1-1.39-1Zm-1.07-3.05-2.13-6-2.37,6Z" style="fill:#263238"></path><path d="M331.57,139.79l.34-16.38a1.56,1.56,0,0,1,1.56-1.52,1.52,1.52,0,0,1,1.53,1.52l-.31,14.83h7.52a1.52,1.52,0,0,1,1.49,1.55,1.6,1.6,0,0,1-1.56,1.53h-9.07A1.48,1.48,0,0,1,331.57,139.79Z" style="fill:#263238"></path><path d="M346.66,136.49a1.45,1.45,0,0,1,2-.19,8.82,8.82,0,0,0,5.26,2.13,6.11,6.11,0,0,0,3.49-1,2.56,2.56,0,0,0,1.23-2,1.56,1.56,0,0,0-.23-.89,2.42,2.42,0,0,0-.81-.83,11,11,0,0,0-3.78-1.31h-.05a14.7,14.7,0,0,1-3.56-1.08,5.79,5.79,0,0,1-2.54-2.17,4.16,4.16,0,0,1-.59-2.27,5.28,5.28,0,0,1,2.31-4.06,8.34,8.34,0,0,1,4.83-1.47,10.68,10.68,0,0,1,6,2.22,1.45,1.45,0,0,1-1.63,2.39,7.9,7.9,0,0,0-4.43-1.78,5.36,5.36,0,0,0-3.13,1,2.24,2.24,0,0,0-1.09,1.75,1.24,1.24,0,0,0,.18.77,2.5,2.5,0,0,0,.73.73,9.39,9.39,0,0,0,3.45,1.22h.05a16.56,16.56,0,0,1,3.81,1.16,6.29,6.29,0,0,1,2.72,2.31,4.34,4.34,0,0,1,.62,2.36,5.52,5.52,0,0,1-2.48,4.3,8.8,8.8,0,0,1-5.16,1.58,11.65,11.65,0,0,1-7.05-2.77A1.47,1.47,0,0,1,346.66,136.49Z" style="fill:#263238"></path><polygon points="434.03 141.86 402.98 141.6 371.93 141.45 309.82 141.32 247.69 141.44 216.63 141.6 185.56 141.86 216.61 142.13 247.66 142.28 309.77 142.4 371.89 142.28 402.96 142.12 434.03 141.86" style="fill:#dbdbdb"></polygon><polygon points="433.18 169.09 402.14 168.83 371.08 168.68 308.97 168.55 246.85 168.68 215.78 168.83 184.72 169.09 215.76 169.35 246.82 169.51 308.93 169.63 371.05 169.5 402.11 169.35 433.18 169.09" style="fill:#dbdbdb"></polygon><polygon points="432.3 196.32 401.25 196.06 370.2 195.91 308.08 195.78 245.96 195.9 214.9 196.06 183.83 196.32 214.88 196.58 245.93 196.74 308.04 196.86 370.16 196.73 401.23 196.58 432.3 196.32" style="fill:#dbdbdb"></polygon><polygon points="431.45 223.55 400.4 223.29 369.35 223.14 307.24 223.01 245.12 223.13 214.05 223.28 182.98 223.55 214.03 223.81 245.08 223.97 307.19 224.09 369.32 223.96 400.38 223.81 431.45 223.55" style="fill:#dbdbdb"></polygon><polygon points="430.57 250.78 399.53 250.52 368.48 250.37 306.36 250.24 244.24 250.36 213.18 250.51 182.11 250.78 213.16 251.04 244.21 251.19 306.32 251.32 368.44 251.19 399.51 251.04 430.57 250.78" style="fill:#dbdbdb"></polygon><polygon points="429.7 278.01 398.65 277.75 367.6 277.6 305.49 277.47 243.37 277.59 212.3 277.75 181.23 278.01 212.28 278.27 243.33 278.43 305.45 278.55 367.57 278.42 398.63 278.27 429.7 278.01" style="fill:#dbdbdb"></polygon><polygon points="428.87 305.24 397.82 304.98 366.77 304.82 304.66 304.7 242.54 304.82 211.47 304.97 180.41 305.24 211.45 305.5 242.5 305.65 304.62 305.78 366.74 305.65 397.8 305.5 428.87 305.24" style="fill:#dbdbdb"></polygon><polygon points="427.96 332.47 396.91 332.21 365.86 332.06 303.75 331.93 241.62 332.05 210.56 332.2 179.49 332.47 210.54 332.73 241.59 332.88 303.7 333.01 365.82 332.88 396.89 332.73 427.96 332.47" style="fill:#dbdbdb"></polygon><polygon points="427.1 359.7 396.06 359.44 365 359.28 302.89 359.16 240.77 359.28 209.71 359.43 178.64 359.7 209.68 359.96 240.74 360.11 302.85 360.24 364.97 360.11 396.03 359.96 427.1 359.7" style="fill:#dbdbdb"></polygon><polygon points="426.24 386.93 395.19 386.67 364.14 386.51 302.03 386.39 239.91 386.51 208.84 386.66 177.78 386.93 208.82 387.19 239.88 387.34 301.99 387.47 364.11 387.34 395.17 387.19 426.24 386.93" style="fill:#dbdbdb"></polygon><polygon points="425.37 414.16 394.32 413.89 363.27 413.74 301.15 413.62 239.03 413.74 207.97 413.89 176.9 414.16 207.95 414.42 239 414.57 301.11 414.7 363.23 414.57 394.3 414.42 425.37 414.16" style="fill:#dbdbdb"></polygon><polygon points="424.52 441.39 393.47 441.12 362.42 440.97 300.31 440.85 238.19 440.97 207.12 441.12 176.05 441.39 207.1 441.65 238.15 441.8 300.26 441.93 362.39 441.8 393.45 441.65 424.52 441.39" style="fill:#dbdbdb"></polygon><rect x="27.52" y="263.58" width="385.84" height="1" transform="translate(-49.57 477.22) rotate(-88.43)" style="fill:#FCB310"></rect><path d="M252.23,190H235.1l.36-17.13h17.13Zm-16.36-.75H251.5l.33-15.63H236.2Z" style="fill:#263238"></path><rect x="265.7" y="174.54" width="134.65" height="0.75" style="fill:#263238"></rect><rect x="265.51" y="182.58" width="134.65" height="0.75" style="fill:#263238"></rect><path d="M237.52,180c.6.51,1.17,1.05,1.74,1.59s1.11,1.09,1.67,1.64c1.1,1.11,2.15,2.25,3.19,3.4l-1.91.12a77.54,77.54,0,0,1,5.38-9.09q1.49-2.17,3.16-4.25a40.94,40.94,0,0,1,3.64-4,41.69,41.69,0,0,1-2,5q-1.12,2.4-2.43,4.7a77.65,77.65,0,0,1-5.82,8.82l-1.07,1.39-.84-1.27c-.85-1.3-1.69-2.61-2.49-4-.39-.68-.79-1.35-1.17-2S237.86,180.74,237.52,180Z" style="fill:#FCB310"></path><path d="M251.48,217.21H234.35l.36-17.13h17.13Zm-16.36-.75h15.63l.33-15.63H235.45Z" style="fill:#263238"></path><rect x="264.96" y="201.73" width="134.65" height="0.75" style="fill:#263238"></rect><rect x="264.76" y="209.77" width="134.65" height="0.75" style="fill:#263238"></rect><path d="M236.77,207.22c.6.51,1.17,1,1.74,1.58s1.12,1.1,1.67,1.64c1.1,1.11,2.16,2.25,3.2,3.4l-1.92.13a76.73,76.73,0,0,1,5.38-9.09q1.49-2.19,3.16-4.25a41.15,41.15,0,0,1,3.64-4,41,41,0,0,1-2,5c-.75,1.61-1.56,3.17-2.43,4.7a77.65,77.65,0,0,1-5.82,8.82l-1.07,1.4-.84-1.28c-.85-1.3-1.69-2.61-2.49-3.95-.38-.68-.79-1.34-1.17-2S237.11,207.93,236.77,207.22Z" style="fill:#FCB310"></path><path d="M250.73,244.4H233.61l.36-17.13h17.12Zm-16.36-.75H250l.33-15.63H234.7Z" style="fill:#263238"></path><rect x="264.21" y="228.91" width="134.65" height="0.75" style="fill:#263238"></rect><rect x="264.01" y="236.95" width="134.65" height="0.75" style="fill:#263238"></rect><path d="M250,271.58H232.86l.36-17.12h17.13Zm-16.37-.75h15.63l.33-15.62H234Z" style="fill:#263238"></path><rect x="263.46" y="256.1" width="134.65" height="0.75" style="fill:#263238"></rect><rect x="263.27" y="264.14" width="134.65" height="0.75" style="fill:#263238"></rect><path d="M235.27,261.59c.61.51,1.18,1,1.75,1.58s1.11,1.1,1.67,1.64q1.63,1.67,3.19,3.41l-1.91.12a77.47,77.47,0,0,1,5.37-9.09c1-1.45,2-2.87,3.17-4.25a39.79,39.79,0,0,1,3.63-4,39.47,39.47,0,0,1-2,5c-.74,1.61-1.56,3.17-2.43,4.7a77.57,77.57,0,0,1-5.81,8.82l-1.08,1.4-.83-1.28c-.86-1.3-1.7-2.61-2.49-4-.39-.68-.8-1.34-1.17-2S235.62,262.3,235.27,261.59Z" style="fill:#FCB310"></path><path d="M249.24,298.77H232.11l.36-17.13H249.6ZM232.88,298H248.5l.33-15.63H233.2Z" style="fill:#263238"></path><rect x="262.71" y="283.29" width="134.65" height="0.75" style="fill:#263238"></rect><rect x="262.52" y="291.32" width="134.65" height="0.75" style="fill:#263238"></rect><path d="M248.49,326H231.36l.36-17.12h17.13Zm-16.36-.75h15.63l.32-15.62H232.46Z" style="fill:#263238"></path><rect x="261.96" y="310.47" width="134.65" height="0.75" style="fill:#263238"></rect><rect x="261.77" y="318.51" width="134.65" height="0.75" style="fill:#263238"></rect><path d="M247.74,353.14H230.61L231,336H248.1Zm-16.36-.75H247l.33-15.63H231.71Z" style="fill:#263238"></path><rect x="261.21" y="337.66" width="134.65" height="0.75" style="fill:#263238"></rect><rect x="261.02" y="345.69" width="134.65" height="0.75" style="fill:#263238"></rect><path d="M233,343.14c.6.51,1.17,1.05,1.74,1.59s1.11,1.09,1.67,1.64c1.1,1.11,2.16,2.25,3.2,3.4l-1.92.12a78.37,78.37,0,0,1,5.38-9.09q1.49-2.18,3.16-4.25a40.94,40.94,0,0,1,3.64-4,41,41,0,0,1-2,5c-.75,1.61-1.56,3.17-2.43,4.7a77.65,77.65,0,0,1-5.82,8.82l-1.07,1.39-.84-1.27c-.85-1.3-1.69-2.61-2.49-4-.39-.68-.79-1.35-1.17-2S233.37,343.86,233,343.14Z" style="fill:#FCB310"></path><path d="M247,380.32H229.87l.36-17.12h17.12Zm-16.36-.75h15.63l.33-15.62H231Z" style="fill:#263238"></path><rect x="260.47" y="364.84" width="134.65" height="0.75" style="fill:#263238"></rect><rect x="260.27" y="372.88" width="134.65" height="0.75" style="fill:#263238"></rect><path d="M246.25,407.51H229.12l.36-17.13H246.6Zm-16.37-.75h15.63l.33-15.63H230.21Z" style="fill:#263238"></path><rect x="259.72" y="392.03" width="134.65" height="0.75" style="fill:#263238"></rect><rect x="259.53" y="400.06" width="134.65" height="0.75" style="fill:#263238"></rect></g><g id="freepik--Plant--inject-22"><path d="M93.29,244s-25.68-3.59-19.68-34.59C73.61,209.43,102.3,215.87,93.29,244Z" style="fill:#FCB310"></path><path d="M93.29,244s-25.68-3.59-19.68-34.59C73.61,209.43,102.3,215.87,93.29,244Z" style="opacity:0.1"></path><path d="M92,237.55a47.64,47.64,0,0,0-1.75-4.62c0-.2,0-.39-.07-.59,0-.42-.07-.85-.1-1.28-.07-.92-.13-1.85-.19-2.77-.11-1.85-.23-3.71-.25-5.56a.08.08,0,0,0-.16,0c0,1.86,0,3.71,0,5.57,0,.92.09,1.85.15,2.78,0,.2,0,.41,0,.61a54.15,54.15,0,0,0-5.15-8.8q-1.32-1.84-2.8-3.56c-1-1.17-2.11-2.29-3.14-3.45-.07-.07-.18,0-.11.12a45.94,45.94,0,0,1,5,6.57c.78,1.19,1.51,2.4,2.21,3.63l-.23-.09c-.31-.13-.61-.26-.92-.37-.7-.27-1.39-.54-2.1-.8l-4.13-1.53c-.08,0-.13.11,0,.14,1.36.54,2.71,1.12,4.06,1.7l2,.86,1,.41a3.07,3.07,0,0,0,.68.24c.52.93,1,1.86,1.51,2.82A67.69,67.69,0,0,1,90.6,237l.18.54a15,15,0,0,0-2.1-1L86,235.28c-1.8-.83-3.59-1.67-5.32-2.64-.08,0-.16.09-.07.14,1.76,1,3.49,2,5.26,2.94.88.48,1.77.95,2.67,1.39a8.27,8.27,0,0,0,2.42,1,30.88,30.88,0,0,1,1.68,7.29c.29,3.5.25,7,.34,10.55,0,.06.08.06.09,0,.25-3.19.4-6.41.41-9.61A27.79,27.79,0,0,0,92,237.55Z" style="fill:#263238"></path><path d="M88,219.32a30.34,30.34,0,0,0-.25,5.47c0,.05.07.05.08,0,.1-1.82.12-3.62.33-5.43C88.2,219.26,88.05,219.22,88,219.32Z" style="fill:#263238"></path><path d="M80.69,220.88a20.64,20.64,0,0,1-3.3-1.63c-.08-.05-.16.09-.07.14A12.15,12.15,0,0,0,80.65,221C80.71,221,80.76,220.9,80.69,220.88Z" style="fill:#263238"></path><path d="M94.11,293.23c0-2.84-.08-5.68-.11-8.51-.06-9.43-.13-18.85-.3-28.27q-.21-11.22-.52-22.44a.13.13,0,0,0-.07-.09l0-6.13s-.06-.08-.12-.08-.13,0-.13.08c0,2.05,0,4.09,0,6.14a.11.11,0,0,0-.05.09c-.38,13.31-.72,26.63-.8,39.94,0,2.71,0,5.42,0,8.12q-.14,13-.1,26.05c0,1.38,0,2.76,0,4.14,0,8,.08,15.89.08,23.83,0,.43.48.64,1,.66s1.19-.21,1.19-.69c0-8.76.06-17.52.06-26.28C94.13,304.27,94.15,298.75,94.11,293.23Z" style="fill:#263238"></path><path d="M83.38,284.61s-12.35-9.15-24.07-3-13.56,30-13.56,30S63,314.12,73.8,303.8C84.25,293.86,83.38,284.61,83.38,284.61Z" style="fill:#FCB310"></path><path d="M86.75,285.17a14.73,14.73,0,0,0-7.15-.93,11.18,11.18,0,0,0-1.52-.15L76.34,284l-3.6-.25c-2.44-.19-4.88-.33-7.31-.58-.09,0-.11.14,0,.15,2.41.31,4.8.65,7.22.9,1.24.12,2.48.25,3.73.34l.9.09c-.37.08-.74.17-1.1.27a29.42,29.42,0,0,0-5.59,2.28c-1,.17-1.94.44-2.9.67-1.53.36-3,.75-4.57,1.15-3,.78-6,1.67-8.94,2.53a.08.08,0,0,0,.05.15c3-.73,6-1.39,8.94-2.1l4.34-1,1.14-.27a36.14,36.14,0,0,0-8.78,7.64,47.56,47.56,0,0,0-6.1,9.62c0,.09.08.17.13.08a47,47,0,0,1,7.38-9.69c0,.17-.1.33-.16.5-.23.72-.45,1.45-.68,2.18-.46,1.45-.92,2.9-1.36,4.37,0,.09.12.13.15,0,.52-1.41,1-2.82,1.52-4.24.24-.7.49-1.39.73-2.09.13-.36.25-.72.37-1.08l.12-.33a44.36,44.36,0,0,1,4.38-3.74,33.46,33.46,0,0,1,6.55-3.75l-.12.63c-.12.56-.25,1.12-.36,1.69-.25,1.17-.47,2.34-.7,3.51-.47,2.39-.75,4.81-1.2,7.2,0,.1.13.14.15,0,.55-2.4,1.27-4.77,1.8-7.18.27-1.2.54-2.41.79-3.62.12-.56.23-1.12.35-1.69.06-.31.13-.63.17-.94.22-.09.44-.2.67-.28,3.24-1.2,6.82-2.07,10.28-1.41a10.11,10.11,0,0,1,7.43,6c.11.27.53.1.47-.18C91.94,288.52,89.46,286.31,86.75,285.17Z" style="fill:#263238"></path><path d="M67.84,295.35c-.35,1.56-.69,3.13-1,4.69a34.05,34.05,0,0,0-.86,4.57c0,.06.08.06.1,0a35.66,35.66,0,0,0,1-4.6c.3-1.54.61-3.09.91-4.63A.08.08,0,0,0,67.84,295.35Z" style="fill:#263238"></path><path d="M55.9,299.33c-1.57.8-3.1,1.7-4.74,2.35-.1.05,0,.2.06.15a51.33,51.33,0,0,0,4.72-2.44A0,0,0,0,0,55.9,299.33Z" style="fill:#263238"></path><path d="M86.16,267.8s-15.09,1-22.11-9-5.45-24.16-5.45-24.16,15.85,1.92,22.15,9.07S86.16,267.8,86.16,267.8Z" style="fill:#FCB310"></path><path d="M93.24,282.7c-.52-1.62-1.17-3.21-1.78-4.8s-1.21-3-1.87-4.52a95.19,95.19,0,0,0-4.53-8.89c-1.06-1.84-2.2-3.62-3.38-5.37,0-.27-.08-.54-.12-.81l-.21-1.4c-.15-1-.32-1.91-.47-2.86-.35-2.08-.78-4.15-1.11-6.24,0-.1-.18-.1-.16,0,.3,2.06.51,4.13.8,6.2.14,1,.27,2,.43,3,0,.37.11.73.17,1.1a109.06,109.06,0,0,0-7.47-9.69l-1.1-1.23c0-.12-.09-.23-.14-.35L72,246c-.22-.6-.44-1.2-.65-1.8-.43-1.18-.8-2.37-1.13-3.59,0-.1-.17-.05-.15,0,.31,1.24.63,2.47,1,3.7.18.59.37,1.17.58,1.75l.11.29c-1.93-2.1-3.94-4.13-6-6.13-.07-.07-.17,0-.1.11a108.34,108.34,0,0,1,10.69,13.1,9.17,9.17,0,0,0-1.12-.28c-1.16-.23-2.33-.39-3.5-.54-2.46-.31-4.92-.62-7.36-1-.1,0-.14.13,0,.15,2.34.46,4.65,1,7,1.52,1.09.26,2.19.47,3.3.69a21.68,21.68,0,0,1,2.65.75l.73,1c1.11,1.61,2.17,3.25,3.21,4.91l-1.54-.3c-1.16-.23-2.33-.44-3.5-.63-2.31-.38-4.61-.78-6.88-1.3a.08.08,0,0,0,0,.16c2.31.54,4.59,1.17,6.88,1.78,1.11.3,2.22.56,3.34.81l1.68.36a3.48,3.48,0,0,0,.68.12q3.3,5.37,6.19,11,1.26,2.46,2.43,5c.81,1.71,1.5,3.46,2.25,5.2C92.81,283.22,93.37,283.08,93.24,282.7Z" style="fill:#263238"></path><path d="M77.8,248c-.29-1.44-.6-2.88-.92-4.31,0-.1-.17,0-.15,0,.29,1.42.56,2.84.82,4.26a41.17,41.17,0,0,0,.86,4.23s0,0,0,0A30,30,0,0,0,77.8,248Z" style="fill:#263238"></path><path d="M69,247.59c-.7-.35-1.44-.63-2.17-.91l-1.14-.45-.59-.24a2.38,2.38,0,0,1-.63-.28c-.12-.08-.19.12-.08.14a2.6,2.6,0,0,1,.65.26l.57.26,1.1.49a22.44,22.44,0,0,0,2.23.88C69,247.77,69.07,247.63,69,247.59Z" style="fill:#263238"></path><path d="M101.61,255.94s9.14-17.07,23-19.71S147,247.89,147,247.89s-10.13,12.94-22.89,15.2S101.61,255.94,101.61,255.94Z" style="fill:#FCB310"></path><path d="M134,243.88a37.16,37.16,0,0,0-10.89.13c.2-.12.41-.23.62-.33l3.08-1.59c2.13-1.11,4.29-2.29,6.52-3.19a.08.08,0,1,0-.06-.14c-2.17,1-4.43,1.86-6.61,2.86-1.09.5-2.16,1-3.22,1.59-.69.36-1.45.71-2.12,1.14a38.34,38.34,0,0,0-8.83,2.94c.58-.64,1.16-1.26,1.73-1.9,1.3-1.41,2.57-2.9,4-4.2.07-.06,0-.17-.12-.1-1.45,1.32-3,2.54-4.4,3.91-.68.67-1.34,1.36-2,2.07-.32.35-.64.72-.94,1.1A36.66,36.66,0,0,0,92.1,273.33c0,.09.12.15.15.05a42,42,0,0,1,10.22-17.29,40.07,40.07,0,0,1,18.62-10.77,40.88,40.88,0,0,1,12.85-1.17A.14.14,0,0,0,134,243.88Z" style="fill:#263238"></path><path d="M147.05,247.89s-10.14,12.95-22.9,15.2c-9.73,1.73-17.73-3.35-21-5.84l-.7-1.16s6.58-5.54,19-8.74S147.05,247.89,147.05,247.89Z" style="opacity:0.1"></path><path d="M125.88,237.79c-1,.65-2.1,1.29-3.08,2a19.49,19.49,0,0,0-2.68,2.45.09.09,0,0,0,.12.12c.92-.8,1.85-1.61,2.8-2.36a27.52,27.52,0,0,1,2.93-2.11C126.05,237.88,126,237.74,125.88,237.79Z" style="fill:#263238"></path><path d="M133.51,240.68c-.51.22-1,.4-1.56.62l-1.54.64c-.11,0-.06.22.05.18l1.55-.63c.52-.21,1-.45,1.55-.66C133.65,240.8,133.6,240.64,133.51,240.68Z" style="fill:#263238"></path><path d="M99.79,277.41s2.44,16.93,15.17,22.85,28.24,0,28.24,0S137.1,263.64,99.79,277.41Z" style="fill:#FCB310"></path><path d="M134.43,289.25c-1.17-.14-2.34-.34-3.5-.55l-1.71-.32c-.29-.06-.59-.13-.9-.18-.34-.32-.68-.65-1-1a51.92,51.92,0,0,0-7.78-5.64,45.7,45.7,0,0,0-4.67-2.4l.24,0c1.4,0,2.8.11,4.19.18,2.8.13,5.59.19,8.38.37.1,0,.1-.15,0-.16-2.81-.19-5.59-.5-8.39-.74-1.36-.11-2.71-.24-4.07-.36l-2.1-.18-.54-.06c-.72-.27-1.45-.53-2.19-.75a19.79,19.79,0,0,0-10.78-.6c-3.21.82-6.4,2.92-7.23,6.29,0,.12.15.2.2.08,1.2-2.82,4.33-4.24,7.15-4.82a16.94,16.94,0,0,1,5.77-.12,13.51,13.51,0,0,0,.64,2.56c.35,1.19.7,2.39,1.06,3.57.72,2.38,1.52,4.74,2.22,7.12,0,.1.17,0,.15-.05-.59-2.37-1.09-4.77-1.66-7.15-.28-1.17-.58-2.33-.87-3.5a19.15,19.15,0,0,0-.64-2.41,30.62,30.62,0,0,1,3.31.78,48.57,48.57,0,0,1,5.76,2.12c.19,1.2.46,2.4.74,3.59.34,1.49.73,3,1.21,4.43a.07.07,0,0,0,.14,0l-.06-.28h0c-.29-1.39-.59-2.77-.88-4.15-.24-1.11-.46-2.23-.7-3.35,1.58.71,3.14,1.49,4.64,2.35,0,.35.12.7.17,1,.09.58.19,1.16.3,1.73.24,1.31.5,2.61.81,3.9A61,61,0,0,0,124,298a.08.08,0,0,0,0,.1l.07.08c.06.07.15,0,.13-.08-.59-2.5-1.26-5-1.81-7.51-.27-1.26-.55-2.51-.8-3.77-.13-.63-.25-1.27-.36-1.9,0-.18-.06-.37-.09-.56a50.68,50.68,0,0,1,5,3.3,53.05,53.05,0,0,1,7.59,6.93c.09.1.27-.05.19-.16-1-1.27-1.94-2.52-3-3.7-.64-.68-1.3-1.34-2-2l.21,0,1.79.27c1.18.16,2.36.28,3.54.41C134.49,289.41,134.53,289.26,134.43,289.25Z" style="fill:#263238"></path><path d="M125.49,295h0c0-.15,0-.3-.08-.44s-.12-.37-.15-.56h0c-.26-1.13-.48-2.27-.68-3.42,0-.08-.14-.05-.14,0a13.63,13.63,0,0,0,1,4.42,0,0,0,0,0,.09,0Z" style="fill:#263238"></path><path d="M114.83,294.71a.08.08,0,0,0-.07-.07c-.36-1.5-.7-3-1-4.51-.17-.79-.33-1.58-.48-2.38l-.24-1.28a4,4,0,0,0-.27-1.1.08.08,0,0,0-.15,0,7.69,7.69,0,0,0,.32,2.27c.16.83.32,1.65.5,2.47.37,1.67.79,3.34,1.26,5,0,.09.18.07.17,0Z" style="fill:#263238"></path><path d="M133.27,284.37c-2.32-.32-4.65-.65-7-.94-.1,0-.14.14,0,.16,2.32.34,4.65.63,7,.93C133.33,284.54,133.37,284.39,133.27,284.37Z" style="fill:#263238"></path><path d="M93.27,237.71s-7.79-34.17,28.92-48C122.19,189.72,132.36,234.69,93.27,237.71Z" style="fill:#FCB310"></path><path d="M101.19,218.33c.14-.08.27-.17.39-.23l2.08-1.16,4.26-2.39c2.8-1.56,5.57-3.19,8.39-4.73.09,0,0-.18-.09-.13-2.82,1.54-5.7,3-8.54,4.48l-4.21,2.22-1.72.91c1.23-2.32,2.54-4.6,4-6.79,1.92-2.93,4-5.72,6.21-8.44a.13.13,0,0,0-.18-.18,58.27,58.27,0,0,0-8.49,10.41c0-.12,0-.24,0-.36,0-.85.07-1.7.08-2.55,0-1.66-.06-3.34,0-5,0-.1-.15-.1-.15,0-.07,1.64-.27,3.28-.36,4.92,0,.82-.08,1.64-.11,2.46,0,.44,0,.95,0,1.43-.75,1.2-1.48,2.42-2.17,3.66a66.78,66.78,0,0,0-3.28,6.88c0-.85-.08-1.7-.13-2.55-.11-1.87-.34-3.73-.42-5.6a.08.08,0,0,0-.16,0c0,1.87,0,3.74,0,5.62,0,.93.06,1.87.12,2.8,0,.34,0,.69.07,1a61.88,61.88,0,0,0-2.78,9.39c-.71,3.42-1,6.85-1.37,10.32,0,0,0,0,0,0a56.83,56.83,0,0,1,2-9.2c.46-1.61.94-3.22,1.45-4.81,1.53-.72,3-1.62,4.47-2.43s3.07-1.68,4.61-2.53c3.06-1.67,6.11-3.38,9.28-4.87.09,0,0-.17-.09-.13-3.2,1.45-6.42,2.83-9.57,4.4-1.56.79-3.1,1.63-4.62,2.49-1.28.72-2.59,1.44-3.81,2.26.36-1.06.73-2.12,1.14-3.17A90.85,90.85,0,0,1,101.19,218.33Z" style="fill:#263238"></path><path d="M98.1,210.52c0-.1-.17-.09-.16,0,.13,1.95.2,3.89.4,5.84a.09.09,0,0,0,.18,0C98.45,214.41,98.24,212.47,98.1,210.52Z" style="fill:#263238"></path><path d="M115.7,217.05c-2.3.92-4.62,1.8-6.9,2.76-.07,0,0,.13,0,.1,2.32-.86,4.61-1.81,6.91-2.71C115.84,217.16,115.79,217,115.7,217.05Z" style="fill:#263238"></path><path d="M119.19,201.29a59.3,59.3,0,0,0-6.53,3.5.1.1,0,0,0,.1.17c2.13-1.25,4.3-2.44,6.51-3.54C119.36,201.38,119.28,201.25,119.19,201.29Z" style="fill:#263238"></path><rect x="65.69" y="311.6" width="52.94" height="55.81" style="fill:#37474f"></rect><rect x="62.04" y="331.35" width="2.71" height="125.59" style="fill:#263238"></rect><rect x="119.28" y="331.35" width="2.71" height="125.59" style="fill:#263238"></rect><rect x="92.1" y="331.35" width="2.71" height="125.59" style="fill:#263238"></rect><rect x="63.4" y="363.83" width="57.24" height="7.73" style="fill:#263238"></rect></g><g id="freepik--Floor--inject-22"><path d="M45.75,456.94c130.86-.61,277.64-.62,408.5,0-130.86.61-277.64.61-408.5,0Z" style="fill:#263238"></path></g><g id="freepik--speech-bubble--inject-22"><path d="M137.36,221a27.38,27.38,0,0,0,43.71,22l13.42,3.42-5.59-12.49A27.39,27.39,0,1,0,137.36,221Z" style="fill:#fff"></path><path d="M137.36,221c.43,22.83,25.5,34.88,43.8,21.64L194.6,246l-.51.6-5.63-12.48-.1-.21c8.46-15.22-.12-35-17-39.18-16.93-4.62-34.08,8.76-34,26.28Zm0,0c.07-23.32,27.26-36.08,45.26-21.23,9.95,8,13,23.17,6.7,34.37l0-.42,5.55,12.51.37.84-.88-.23L181,243.32c-17.15,13-43.48.78-43.62-22.33Z" style="fill:#263238"></path><polygon points="160.15 237.28 147.87 224.86 152 220.78 159.17 228.04 174.06 204.69 178.95 207.8 160.15 237.28" style="fill:#FCB310"></polygon></g></svg>